<svg xmlns="http://www.w3.org/2000/svg" viewBox="0 0 192 192">
  <!-- Parchment background -->
  <rect width="192" height="192" rx="42" fill="#FAF7F2"/>

  <!-- Header bar (olive) -->
  <rect x="28" y="32" width="136" height="20" rx="4" fill="#5C6B3A"/>

  <!-- Activity progress tracks + fills -->
  <!-- Row 1: olive, ~65% -->
  <rect x="28" y="62" width="136" height="11" rx="3" fill="#E8E3DC"/>
  <rect x="28" y="62" width="88"  height="11" rx="3" fill="#5C6B3A" opacity="0.82"/>

  <!-- Row 2: terracotta, ~42% -->
  <rect x="28" y="80" width="136" height="11" rx="3" fill="#E8E3DC"/>
  <rect x="28" y="80" width="57"  height="11" rx="3" fill="#A0522D" opacity="0.82"/>

  <!-- Row 3: olive faint, ~75% -->
  <rect x="28" y="98" width="136" height="11" rx="3" fill="#E8E3DC"/>
  <rect x="28" y="98" width="102" height="11" rx="3" fill="#5C6B3A" opacity="0.40"/>

  <!-- Divider -->
  <rect x="28" y="120" width="136" height="1" fill="#D4CFC8"/>

  <!-- Session log entries -->
  <circle cx="38" cy="132" r="5" fill="#5C6B3A" opacity="0.78"/>
  <rect x="48" y="129" width="72" height="6" rx="2" fill="#D4CFC8"/>

  <circle cx="38" cy="147" r="5" fill="#A0522D" opacity="0.78"/>
  <rect x="48" y="144" width="54" height="6" rx="2" fill="#D4CFC8"/>

  <circle cx="38" cy="162" r="5" fill="#5C6B3A" opacity="0.44"/>
  <rect x="48" y="159" width="84" height="6" rx="2" fill="#D4CFC8"/>
</svg>
